<?xml version="1.0" encoding="UTF-8"?>
<!DOCTYPE svg PUBLIC "-//W3C//DTD SVG 1.1//EN" "http://www.w3.org/Graphics/SVG/1.1/DTD/svg11.dtd">
<!-- Creator: CorelDRAW X7 -->
<svg xmlns="http://www.w3.org/2000/svg" xml:space="preserve" width="0.213331in" height="0.213331in" version="1.1" style="shape-rendering:geometricPrecision; text-rendering:geometricPrecision; image-rendering:optimizeQuality; fill-rule:evenodd; clip-rule:evenodd"
viewBox="0 0 213 213"
 xmlns:xlink="http://www.w3.org/1999/xlink">
 <defs>
  <style type="text/css">
   <![CDATA[
    .fil0 {fill:none}
    .fil4 {fill:#676767}
    .fil6 {fill:#C92626}
    .fil5 {fill:#CA2424}
    .fil3 {fill:#CB2525}
    .fil2 {fill:url(#id0)}
    .fil1 {fill:url(#id1)}
   ]]>
  </style>
  <linearGradient id="id0" gradientUnits="userSpaceOnUse" x1="164.634" y1="208.988" x2="116.681" y2="139.941">
   <stop offset="0" style="stop-opacity:1; stop-color:#3D3D3D"/>
   <stop offset="1" style="stop-opacity:1; stop-color:#ADABAB"/>
  </linearGradient>
  <linearGradient id="id1" gradientUnits="userSpaceOnUse" x1="27.8386" y1="63.0118" x2="115.343" y2="63.0118">
   <stop offset="0" style="stop-opacity:1; stop-color:#8A1313"/>
   <stop offset="0.521569" style="stop-opacity:1; stop-color:#C22727"/>
   <stop offset="0.478431" style="stop-opacity:1; stop-color:#BD2C2C"/>
   <stop offset="1" style="stop-opacity:1; stop-color:#FA3C3C"/>
  </linearGradient>
 </defs>
 <g id="Layer_x0020_1">
  <metadata id="CorelCorpID_0Corel-Layer"/>
  <rect class="fil0" width="213" height="213"/>
  <g id="_350773576">
   <path class="fil1" d="M102 8c-1,1 -1,2 -1,3l-1 1c0,0 0,0 0,0 0,1 0,1 0,1 0,0 0,0 -1,0l1 1c-2,2 -2,5 -4,7 0,2 -2,6 -3,7 -1,3 -3,5 -7,3 -2,0 -3,-1 -4,-2l-3 -3 -2 -1c-1,0 -1,0 -1,0l0 7c1,2 1,3 1,5 0,1 0,0 1,2l0 5c1,2 1,4 1,6l1 4 1 8 1 5c0,1 1,5 1,6l-1 1c0,2 0,3 -2,3 -4,-1 -10,-11 -13,-15l-4 -6c-2,-1 -2,-1 -2,-2 -1,-1 -1,-1 -2,-1l-1 3c-1,6 -1,12 -8,10 -2,0 -10,-2 -11,-3l-8 -2 1 6 1 5c1,6 2,9 4,14 0,2 1,4 0,6 0,2 -1,3 -3,3 -1,1 -4,2 -5,2 0,0 0,0 0,1 -1,0 -1,0 -1,0 0,2 17,18 23,23 1,1 1,1 3,1 13,2 26,4 40,4l4 0c0,-1 0,-3 1,-4 1,-10 14,-42 16,-64 0,-5 0,-10 0,-16 0,-4 -1,-13 -1,-15 -1,-1 -2,-6 -2,-7l-1 -5 -3 -10 -2 -5 -1 2c0,1 -1,2 -1,2 -1,2 -1,3 -2,4z"/>
   <path class="fil2" d="M101 142l-2 10 -2 7 0 5 0 4 0 8 0 6 1 6 3 11c1,1 2,5 3,7 1,2 1,5 2,7l0 -1 1 -6c1,-4 2,-8 4,-11 3,-2 6,-4 11,-5l4 0 5 1c2,0 3,0 4,1 1,0 2,0 3,1 2,-1 7,1 10,2l1 -1c-1,-3 -1,-4 -2,-7 -1,-2 -2,-4 -2,-7 1,-4 6,-8 8,-10l1 0 5 -5c1,-1 1,-1 2,-1 0,-2 2,-3 4,-4 0,-1 1,-2 2,-2 0,-1 0,-1 1,-2 2,-1 0,0 2,-1 1,-1 2,-2 3,-3l3 -2c1,-2 3,-4 4,-5l5 -5c-1,0 -2,-1 -2,-1 -1,0 -1,0 -1,-1 -1,0 -1,0 -1,0 -1,0 -3,-1 -4,-2 -6,0 -12,2 -18,3 -6,1 -31,3 -38,3 -7,0 -14,0 -20,0z"/>
   <path class="fil3" d="M193 120c-2,2 -27,8 -31,8 -15,2 -31,4 -44,4 -1,0 -3,0 -5,0 -1,0 -3,0 -4,0 -3,0 -7,0 -9,0 -6,0 -70,-3 -80,-12 -4,3 -4,0 -5,2l-3 2c1,2 2,3 3,4 2,2 5,3 8,4 15,4 28,7 44,8 0,2 -1,5 -2,6 0,2 -1,3 -1,6 0,2 0,0 0,1l2 0c1,-1 3,-1 4,-1l13 -2 3 -1 0 6 0 4 1 5 1 5 1 3 0 2 0 -2c0,-1 0,-5 0,-7l1 -3c-1,-1 0,-2 0,-4 0,-2 0,-5 1,-7l1 -5c0,-2 0,-3 1,-4l8 0c6,0 13,0 20,0 7,0 32,-2 38,-3 6,-1 12,-3 18,-3 2,-1 4,-2 7,-2l3 -1 5 -1c1,-1 5,-3 7,-3 -2,0 0,0 -2,-1l1 0c1,-1 3,0 5,-2l-1 -2c-1,-1 -2,-1 -3,-2 -1,-1 -2,-1 -3,-2 0,-1 -2,0 -1,-1l-2 1z"/>
   <path class="fil4" d="M121 44l1 12 0 6 -1 12c0,1 -1,2 -1,4 0,0 0,1 0,1 -1,2 0,1 -1,2 0,1 -1,3 -1,5l-3 12 -2 6c-2,6 -4,12 -6,18 0,1 -1,2 -1,2 0,3 0,1 0,2 11,0 22,0 32,-1l5 0 5 -1 6 0 6 -1 5 -1 11 -2 2 0 1 -4 3 -12c-1,-1 0,-1 -1,-1 -1,0 -2,0 -2,0 -7,1 -23,10 -24,0l-1 -5 -1 -3 0 0c-2,1 -3,2 -4,4 -16,23 -22,30 -17,-1l1 -6 1 -6 1 -5 2 -15c-3,1 -9,6 -10,6l0 -3c0,-1 0,-2 0,-4 0,-1 0,-2 -1,-3 0,-5 -1,-8 -2,-12 0,-1 -1,-4 -2,-6 -1,-1 0,-1 0,-2 0,0 -1,0 -1,0 0,0 0,1 0,1 0,0 0,0 0,1z"/>
   <path class="fil5" d="M23 99l-6 2c-5,3 -7,2 -13,7 -2,2 -4,4 -4,9 1,6 7,8 12,11l6 2 1 0c1,-1 0,0 -1,-1l-3 -1c-2,-2 3,-7 5,-8l-3 -2c-13,-5 -5,-15 6,-18 0,0 1,-1 1,-1 1,0 1,0 1,0 -1,-1 -1,-1 -2,0z"/>
   <path class="fil6" d="M170 94c2,0 4,1 6,1 1,0 1,1 2,1 0,0 1,0 1,0 2,1 3,1 5,2l3 1 4 1c4,1 11,5 12,10 0,5 -4,7 -8,9 -1,1 0,0 -1,1 2,2 0,2 3,2 2,0 2,1 2,3 1,-1 1,-1 2,-1l2 2c-2,1 -2,1 -4,1l-1 0c0,0 0,0 0,1l-1 0c1,1 0,1 2,1l4 -2 0 0c1,0 2,-1 3,-2 1,0 1,-1 2,-1 0,0 1,-1 1,-1 1,-1 0,-1 1,-1 2,-2 3,-3 3,-7 0,-6 -5,-8 -9,-11l-1 0 -6 -3c-1,0 -1,-1 -3,-1 -2,-1 -3,-1 -5,-2l-2 0 -6 -2c-3,0 -8,-2 -11,-2l-3 0c1,0 2,0 3,0z"/>
  </g>
 </g>
</svg>
